<?xml version="1.0" encoding="utf-8"?>
<!-- Generator: Adobe Illustrator 19.0.0, SVG Export Plug-In . SVG Version: 6.00 Build 0)  -->
<svg version="1.1" id="Layer_1" xmlns="http://www.w3.org/2000/svg" xmlns:xlink="http://www.w3.org/1999/xlink" x="0px" y="0px"
	 viewBox="-16 185 867 831" style="enable-background:new -16 185 867 831;" xml:space="preserve">
<style type="text/css">
	.st0{display:none;fill:none;stroke:#CCCCCC;stroke-width:3;stroke-linecap:round;stroke-miterlimit:10;}
	.st1{fill:#FFFFFF;}
	.st2{fill:#DCDBDB;}
	.st3{fill:#A5A4A4;}
	.st4{fill:#BABAB9;}
	.st5{fill:none;stroke:#CCCCCC;stroke-width:3;stroke-linecap:round;stroke-miterlimit:10;}
	.st6{fill:#F4F4F4;stroke:#F4F4F4;stroke-miterlimit:10;}
	.st7{fill:none;stroke:#FFFFFF;stroke-linecap:round;stroke-miterlimit:10;}
	.st8{fill:none;stroke:#FFFFFF;stroke-miterlimit:10;}
	.st9{fill:none;stroke:#999999;stroke-miterlimit:10;}
	.st10{enable-background:new    ;}
	.st11{fill:#F4F4F4;}
	.st12{fill:none;stroke:#CCCCCC;stroke-width:2;stroke-linecap:round;stroke-miterlimit:10;}
	.st13{fill:none;stroke:#FFFFFF;stroke-width:5;stroke-miterlimit:10;}
</style>
<rect id="XMLID_3_" x="288.8" y="772.7" class="st0" width="95.7" height="42.2"/>
<rect id="XMLID_165_" x="215.9" y="897.8" class="st1" width="237.5" height="89.1"/>
<g id="XMLID_2_">
	<path id="XMLID_508_" class="st1" d="M562.5,728.9H110.9v-261c0-5.5,4.5-10,10-10h431.6c5.5,0,10,4.5,10,10V728.9z"/>
</g>
<g id="XMLID_4_">
	<path id="XMLID_507_" class="st2" d="M552.5,772.5H120.9c-5.5,0-10-4.5-10-10v-35.2h451.6v35.2C562.5,768,558,772.5,552.5,772.5z"
		/>
</g>
<polygon id="XMLID_29_" class="st3" points="288.8,814.9 254.9,834.5 415.4,834.5 384.5,814.9 "/>
<rect id="XMLID_6_" x="135.3" y="482" class="st2" width="76.3" height="94.2"/>
<rect id="XMLID_7_" x="222.3" y="482" class="st4" width="133.8" height="45.4"/>
<rect id="XMLID_8_" x="222.3" y="538.6" class="st2" width="133.8" height="37.7"/>
<rect id="XMLID_9_" x="135.3" y="586" class="st4" width="220.8" height="37.7"/>
<rect id="XMLID_5_" x="367.3" y="482" class="st5" width="170.3" height="141.7"/>
<g id="XMLID_10_">
	<polygon id="XMLID_11_" class="st5" points="392.9,623.7 439.4,544.3 476.1,588.5 537.6,521.8 537.6,623.7 	"/>
	<circle id="XMLID_12_" class="st5" cx="495.1" cy="513.9" r="11.5"/>
</g>
<g id="XMLID_69_">
	<g id="XMLID_19_">
		<polyline id="XMLID_16_" class="st5" points="148.9,644.1 135.1,655.4 148.9,664.2 		"/>
		<polyline id="XMLID_15_" class="st5" points="168,644.1 181.8,655.4 168,664.2 		"/>
		<line id="XMLID_17_" class="st5" x1="163.2" y1="642.4" x2="153.9" y2="665.5"/>
	</g>
	<rect id="XMLID_14_" x="203.9" y="653.3" class="st5" width="333.6" height="3.2"/>
	<rect id="XMLID_18_" x="177.4" y="675.7" class="st5" width="317.7" height="3.2"/>
	<rect id="XMLID_20_" x="142.5" y="698" class="st5" width="315.7" height="3.2"/>
	<g id="XMLID_21_">
		<polyline id="XMLID_28_" class="st5" points="507,689.5 493.3,700.8 507,709.6 		"/>
		<polyline id="XMLID_23_" class="st5" points="526.2,689.5 540,700.8 526.2,709.6 		"/>
		<line id="XMLID_22_" class="st5" x1="521.4" y1="687.9" x2="512.1" y2="710.9"/>
	</g>
</g>
<path id="XMLID_24_" class="st6" d="M633.4,963.6h-24c-7.7,0-13.9-6.3-13.9-13.9v-36.6c0-10.2,8.4-18.6,18.6-18.6h14.7
	c10.2,0,18.6,8.4,18.6,18.6v36.6C647.3,957.4,641.1,963.6,633.4,963.6z"/>
<path id="XMLID_25_" class="st3" d="M623,929.1h-3.3c-2.3,0-4.1-1.9-4.1-4.1v-14.8c0-2.3,1.9-4.1,4.1-4.1h3.3c2.3,0,4.1,1.9,4.1,4.1
	V925C627.2,927.3,625.3,929.1,623,929.1z"/>
<g id="XMLID_162_">
	<rect id="XMLID_27_" x="741" y="207.7" class="st7" width="43.2" height="550.9"/>
	<g id="XMLID_26_">
		<line id="XMLID_30_" class="st7" x1="741" y1="207.7" x2="784.2" y2="257.9"/>
		<line id="XMLID_31_" class="st7" x1="784.2" y1="207.7" x2="741" y2="257.9"/>
	</g>
	<g id="XMLID_32_">
		<line id="XMLID_33_" class="st7" x1="741" y1="258" x2="784.2" y2="308.2"/>
		<line id="XMLID_34_" class="st7" x1="784.2" y1="258" x2="741" y2="308.2"/>
	</g>
	<g id="XMLID_35_">
		<line id="XMLID_36_" class="st7" x1="741" y1="306.8" x2="784.2" y2="357"/>
		<line id="XMLID_37_" class="st7" x1="784.2" y1="306.8" x2="741" y2="357"/>
	</g>
	<g id="XMLID_38_">
		<line id="XMLID_40_" class="st7" x1="741" y1="357.1" x2="784.2" y2="407.3"/>
		<line id="XMLID_39_" class="st7" x1="784.2" y1="357.1" x2="741" y2="407.3"/>
	</g>
	<g id="XMLID_45_">
		<line id="XMLID_47_" class="st7" x1="741" y1="407.3" x2="784.2" y2="457.5"/>
		<line id="XMLID_46_" class="st7" x1="784.2" y1="407.3" x2="741" y2="457.5"/>
	</g>
	<g id="XMLID_48_">
		<line id="XMLID_50_" class="st7" x1="741" y1="457.8" x2="784.2" y2="507.9"/>
		<line id="XMLID_49_" class="st7" x1="784.2" y1="457.8" x2="741" y2="507.9"/>
	</g>
	<g id="XMLID_51_">
		<line id="XMLID_53_" class="st7" x1="741" y1="507.9" x2="784.2" y2="558.1"/>
		<line id="XMLID_52_" class="st7" x1="784.2" y1="507.9" x2="741" y2="558.1"/>
	</g>
	<g id="XMLID_54_">
		<line id="XMLID_58_" class="st7" x1="741" y1="558.1" x2="784.2" y2="608.3"/>
		<line id="XMLID_57_" class="st7" x1="784.2" y1="558.1" x2="741" y2="608.3"/>
	</g>
	<g id="XMLID_59_">
		<line id="XMLID_61_" class="st7" x1="741" y1="608.3" x2="784.2" y2="658.4"/>
		<line id="XMLID_60_" class="st7" x1="784.2" y1="608.3" x2="741" y2="658.4"/>
	</g>
	<g id="XMLID_62_">
		<line id="XMLID_64_" class="st7" x1="741" y1="658.5" x2="784.2" y2="708.7"/>
		<line id="XMLID_63_" class="st7" x1="784.2" y1="658.5" x2="741" y2="708.7"/>
	</g>
	<g id="XMLID_65_">
		<line id="XMLID_67_" class="st7" x1="741" y1="708.8" x2="784.2" y2="758.9"/>
		<line id="XMLID_66_" class="st7" x1="784.2" y1="708.8" x2="741" y2="758.9"/>
	</g>
</g>
<g id="XMLID_92_">
	<g id="XMLID_393_">
		<path id="XMLID_394_" class="st3" d="M208.5,888.8v103.8h253.3V888.8H208.5z M389.8,903.4H412V923h-22.2V903.4z M395.4,932.7v19.5
			h-22.2v-19.5H395.4z M356.6,903.4h22.2V923h-22.2V903.4z M362.1,932.7v19.5H340v-19.5H362.1z M323.4,903.4h22.1V923h-22.1V903.4z
			 M328.9,932.7v19.5h-22.1v-19.5H328.9z M290.2,903.4h22.2V923h-22.2V903.4z M295.7,932.7v19.5h-22.2v-19.5H295.7z M257,903.4h22.1
			V923H257V903.4z M223.7,923v-19.5h22.2V923H223.7z M240.4,952.3v-19.5h22.2v19.5H240.4z M417.5,982.8H251.4v-19.5h166L417.5,982.8
			L417.5,982.8z M428.6,952.3h-22.2v-19.5h22.2V952.3z M445.2,923H423v-19.5h22.2V923z"/>
	</g>
</g>
<g id="XMLID_159_">
	<line id="XMLID_41_" class="st7" x1="621.4" y1="894.5" x2="621.4" y2="642.4"/>
	<line id="XMLID_91_" class="st7" x1="621.4" y1="642.4" x2="561.1" y2="642.4"/>
	<circle id="XMLID_95_" class="st7" cx="560.4" cy="642.9" r="7.7"/>
</g>
<g id="XMLID_13_">
	<line id="XMLID_73_" class="st8" x1="208.1" y1="940.7" x2="21.8" y2="940.7"/>
	<line id="XMLID_94_" class="st8" x1="21.8" y1="940.7" x2="21.8" y2="628.6"/>
	<line id="XMLID_96_" class="st8" x1="21.8" y1="628.6" x2="110.9" y2="628.6"/>
</g>
<circle id="XMLID_97_" class="st9" cx="112.4" cy="628.9" r="7.7"/>
<g id="XMLID_152_">
	<polygon id="XMLID_56_" class="st7" points="740.6,306.8 237.6,306.8 283.2,258 740.6,258 	"/>
	<line id="XMLID_98_" class="st7" x1="293.3" y1="258" x2="293.3" y2="306.8"/>
	<g id="XMLID_102_">
		<line id="XMLID_99_" class="st7" x1="293.3" y1="258" x2="327.8" y2="306.8"/>
		<line id="XMLID_100_" class="st7" x1="293.3" y1="306.8" x2="327.8" y2="258"/>
		<line id="XMLID_101_" class="st7" x1="327.7" y1="258" x2="327.7" y2="306.8"/>
	</g>
	<g id="XMLID_103_">
		<line id="XMLID_106_" class="st7" x1="327.7" y1="258" x2="362.2" y2="306.8"/>
		<line id="XMLID_105_" class="st7" x1="327.7" y1="306.8" x2="362.2" y2="258"/>
		<line id="XMLID_104_" class="st7" x1="362.1" y1="258" x2="362.1" y2="306.8"/>
	</g>
	<g id="XMLID_107_">
		<line id="XMLID_110_" class="st7" x1="362.1" y1="258" x2="396.6" y2="306.8"/>
		<line id="XMLID_109_" class="st7" x1="362.1" y1="306.8" x2="396.6" y2="258"/>
		<line id="XMLID_108_" class="st7" x1="396.5" y1="258" x2="396.5" y2="306.8"/>
	</g>
	<g id="XMLID_111_">
		<line id="XMLID_114_" class="st7" x1="396.5" y1="258" x2="431" y2="306.8"/>
		<line id="XMLID_113_" class="st7" x1="396.5" y1="306.8" x2="431" y2="258"/>
		<line id="XMLID_112_" class="st7" x1="430.9" y1="258" x2="430.9" y2="306.8"/>
	</g>
	<g id="XMLID_115_">
		<line id="XMLID_118_" class="st7" x1="430.9" y1="258" x2="465.4" y2="306.8"/>
		<line id="XMLID_117_" class="st7" x1="430.9" y1="306.8" x2="465.4" y2="258"/>
		<line id="XMLID_116_" class="st7" x1="465.3" y1="258" x2="465.3" y2="306.8"/>
	</g>
	<g id="XMLID_119_">
		<line id="XMLID_122_" class="st7" x1="465.3" y1="258" x2="499.8" y2="306.8"/>
		<line id="XMLID_121_" class="st7" x1="465.3" y1="306.8" x2="499.8" y2="258"/>
		<line id="XMLID_120_" class="st7" x1="499.7" y1="258" x2="499.7" y2="306.8"/>
	</g>
	<g id="XMLID_123_">
		<line id="XMLID_126_" class="st7" x1="499.7" y1="258" x2="534.2" y2="306.8"/>
		<line id="XMLID_125_" class="st7" x1="499.7" y1="306.8" x2="534.2" y2="258"/>
		<line id="XMLID_124_" class="st7" x1="534.1" y1="258" x2="534.1" y2="306.8"/>
	</g>
	<g id="XMLID_127_">
		<line id="XMLID_130_" class="st7" x1="534.1" y1="258" x2="568.6" y2="306.8"/>
		<line id="XMLID_129_" class="st7" x1="534.1" y1="306.8" x2="568.6" y2="258"/>
		<line id="XMLID_128_" class="st7" x1="568.5" y1="258" x2="568.5" y2="306.8"/>
	</g>
	<g id="XMLID_131_">
		<line id="XMLID_134_" class="st7" x1="568.5" y1="258" x2="603" y2="306.8"/>
		<line id="XMLID_133_" class="st7" x1="568.5" y1="306.8" x2="603" y2="258"/>
		<line id="XMLID_132_" class="st7" x1="602.9" y1="258" x2="602.9" y2="306.8"/>
	</g>
	<g id="XMLID_135_">
		<line id="XMLID_138_" class="st7" x1="602.9" y1="258" x2="637.4" y2="306.8"/>
		<line id="XMLID_137_" class="st7" x1="602.9" y1="306.8" x2="637.4" y2="258"/>
		<line id="XMLID_136_" class="st7" x1="637.3" y1="258" x2="637.3" y2="306.8"/>
	</g>
	<g id="XMLID_139_">
		<line id="XMLID_142_" class="st7" x1="637.3" y1="258" x2="671.8" y2="306.8"/>
		<line id="XMLID_141_" class="st7" x1="637.3" y1="306.8" x2="671.8" y2="258"/>
		<line id="XMLID_140_" class="st7" x1="671.7" y1="258" x2="671.7" y2="306.8"/>
	</g>
	<g id="XMLID_143_">
		<line id="XMLID_146_" class="st7" x1="671.7" y1="258" x2="706.2" y2="306.8"/>
		<line id="XMLID_145_" class="st7" x1="671.7" y1="306.8" x2="706.2" y2="258"/>
		<line id="XMLID_144_" class="st7" x1="706.1" y1="258" x2="706.1" y2="306.8"/>
	</g>
	<g id="XMLID_147_">
		<line id="XMLID_150_" class="st7" x1="706.1" y1="258" x2="740.6" y2="306.8"/>
		<line id="XMLID_149_" class="st7" x1="706.1" y1="306.8" x2="740.6" y2="258"/>
		<line id="XMLID_148_" class="st7" x1="740.5" y1="258" x2="740.5" y2="306.8"/>
	</g>
</g>
<g id="XMLID_163_">
	<line id="XMLID_71_" class="st7" x1="274.3" y1="297.8" x2="274.3" y2="482"/>
	<circle id="XMLID_72_" class="st7" cx="274.3" cy="460" r="7.7"/>
	<line id="XMLID_151_" class="st7" x1="266.6" y1="297.8" x2="281.9" y2="297.8"/>
</g>
<line id="XMLID_153_" class="st7" x1="740.8" y1="258" x2="782.8" y2="258"/>
<line id="XMLID_154_" class="st7" x1="740.9" y1="306.8" x2="782.8" y2="306.8"/>
<path id="XMLID_43_" class="st1" d="M13.8,507.5c-0.7,0-1.2,0.6-1.1,1.2l5.8,65.2c0.1,0.7,0.7,1.4,1.3,1.6l24.7,6.8
	c0.7,0.2,1.8,0.2,2.4,0l24.7-6.9c0.7-0.2,1.3-0.9,1.3-1.6l5.8-65.2c0.1-0.7-0.5-1.2-1.1-1.2L13.8,507.5L13.8,507.5z M66.4,522.5
	c-0.1,0.6-0.1,1.7-0.2,2.4l-0.2,1.7c-0.1,0.7-0.1,1.7-0.2,2.2c0,0.5-0.1,0.9-0.1,0.9s-0.6,0-1.3,0H47c-0.7,0-1.3,0-1.3,0
	s-0.6,0-1.3,0h-9.2c-0.7,0-1.2,0.6-1.1,1.2l0.5,6c0.1,0.7,0.7,1.2,1.4,1.2h8.5c0.7,0,1.3,0,1.3,0s0.6,0,1.3,0h14.5
	c0.7,0,1.8,0,2.4,0s1.1,0.5,1,1.1c-0.1,0.6-0.2,1.7-0.2,2.4L63,561c-0.1,0.7-0.1,1.6-0.2,1.9c0,0.4-0.6,0.9-1.3,1l-14.6,4
	c-0.7,0.2-1.2,0.3-1.2,0.3s-0.6-0.1-1.2-0.3l-14.6-4c-0.7-0.2-1.3-0.9-1.3-1.6l-0.9-10.5c-0.1-0.7,0.5-1.2,1.1-1.2h1.3
	c0.7,0,1.8,0,2.5,0h2c0.7,0,1.3,0.6,1.4,1.2l0.4,4.1c0.1,0.7,0.7,1.4,1.3,1.6l6.8,1.8c0.7,0.2,1.2,0.3,1.2,0.3s0.5-0.1,1.2-0.3
	l6.8-1.8c0.7-0.2,1.3-0.9,1.3-1.6l0.7-8.3c0.1-0.7-0.5-1.2-1.1-1.2H47c-0.7,0-1.3,0-1.3,0s-0.6,0-1.3,0h-16c-0.7,0-1.3-0.6-1.4-1.2
	l-1.8-20.4c-0.1-0.7-0.2-1.7-0.2-2.4c-0.1-0.6,0.5-1.1,1.2-1.1h18.3c0.7,0,1.3,0,1.3,0s0.6,0,1.3,0h18.3
	C65.9,521.4,66.5,521.9,66.4,522.5z"/>
<g id="XMLID_161_" class="st10">
	<path class="st1" d="M31.3,498.9h-3.5v-6.4h-6.5v6.4h-3.5v-15.6h3.5v6.2h6.5v-6.2h3.5V498.9z"/>
	<path class="st1" d="M45.8,486.2h-4.5v12.8h-3.5v-12.8h-4.4v-2.9h12.4V486.2z"/>
	<path class="st1" d="M65.8,498.9h-3.5v-9.4c0-1,0-2.1,0.1-3.3h-0.1c-0.2,1-0.3,1.7-0.5,2.1l-3.7,10.6h-2.9l-3.7-10.5
		c-0.1-0.3-0.3-1-0.5-2.2H51c0.1,1.5,0.1,2.9,0.1,4.1v8.6h-3.2v-15.6h5.2l3.2,9.3c0.3,0.7,0.4,1.5,0.6,2.2h0.1
		c0.2-0.9,0.4-1.6,0.6-2.3l3.2-9.2h5V498.9z"/>
	<path class="st1" d="M78.6,498.9h-9.3v-15.6h3.5v12.8h5.8V498.9z"/>
</g>
<path id="XMLID_176_" class="st1" d="M453.5,368.2h-5.6l15.3,43.3l8.6-24.5l-6.6-18.8h-5.9v-4.1h26.2v4.1h-6.1l15.3,43.3l5.5-15.7
	c7.2-20.1-5.9-26.4-5.9-30.9s3.6-8.1,8.1-8.1c0.2,0,0.5,0,0.7,0c-7.6-7.2-17.9-11.6-29.2-11.6c-14.8,0-27.8,7.5-35.4,19h15.1
	L453.5,368.2L453.5,368.2L453.5,368.2z"/>
<path id="XMLID_175_" class="st1" d="M431.3,387.7c0,16.3,9.2,30.4,22.6,37.6L434.7,371C432.5,376.1,431.3,381.7,431.3,387.7z"/>
<path id="XMLID_174_" class="st1" d="M510.9,366.7c0.6,3.6,0.4,7.6-0.5,11.7h0.2l-0.6,1.8l0,0c-0.4,1.3-0.9,2.7-1.4,4l-14.6,41
	c13.4-7.2,22.5-21.3,22.5-37.6C516.4,380,514.4,372.9,510.9,366.7z"/>
<path id="XMLID_172_" class="st1" d="M460.8,428.1c4.1,1.3,8.5,2.1,13.1,2.1c4.4,0,8.6-0.7,12.5-1.9L474,393.1L460.8,428.1z"/>
<path id="XMLID_180_" class="st1" d="M509.8,351.7c-9.6-9.6-22.4-14.9-36-14.9s-26.3,5.3-36,14.9c-9.6,9.6-14.9,22.4-14.9,36
	c0,13.6,5.3,26.3,14.9,36c9.6,9.7,22.4,14.9,36,14.9s26.3-5.3,36-14.9c9.6-9.6,14.9-22.4,14.9-36
	C524.7,374.1,519.4,361.3,509.8,351.7z M473.9,434.9c-26.1,0-47.3-21.2-47.3-47.3c0-26.1,21.2-47.3,47.3-47.3
	c26.1,0,47.3,21.2,47.3,47.3C521.2,413.7,499.9,434.9,473.9,434.9z"/>
<path id="XMLID_224_" class="st11" d="M553.8,824.7h-44.7c-1.2,0-2.3,1-2.3,3v81.7c0,0.5,1,1.5,2.3,1.5h61.7c1.2,0,2.2-1,2.2-1.5
	v-64.7c0-1.1-0.1-1.4-0.4-1.7l-17.9-17.9C554.5,824.9,554.2,824.7,553.8,824.7L553.8,824.7z"/>
<path id="XMLID_221_" class="st12" d="M555.3,827.1v15.8H571L555.3,827.1z"/>
<path id="XMLID_218_" class="st3" d="M570.8,910.9h-61.7c-1.2,0-2.3-1-2.3-2.3v-23.9H573v23.9C573.1,909.9,572.1,910.9,570.8,910.9
	L570.8,910.9z"/>
<path id="XMLID_215_" class="st1" d="M536.9,890.5v12.1c0,0.7-0.1,1.3-0.4,1.8c-0.3,0.5-0.6,0.9-1.1,1.2s-1,0.5-1.5,0.6
	c-0.6,0.1-1.2,0.2-1.8,0.2c-0.3,0-0.7,0-1.1-0.1c-0.4-0.1-0.8-0.2-1.3-0.3c-0.4-0.1-0.9-0.3-1.3-0.5c-0.4-0.2-0.8-0.4-1-0.6l1.1-1.7
	c0.1,0.1,0.3,0.2,0.6,0.3s0.5,0.2,0.8,0.3s0.6,0.2,1,0.2c0.3,0.1,0.7,0.1,0.9,0.1c0.7,0,1.3-0.1,1.8-0.4c0.4-0.3,0.7-0.8,0.7-1.5
	v-11.9h2.6V890.5z"/>
<path id="XMLID_212_" class="st1" d="M549.5,902c0,0.6-0.1,1.1-0.4,1.6c-0.2,0.5-0.6,1-1,1.4s-0.9,0.7-1.6,1
	c-0.6,0.2-1.3,0.4-2.1,0.4c-0.3,0-0.7,0-1-0.1c-0.4,0-0.7-0.1-1.1-0.2c-0.4-0.1-0.7-0.2-1-0.4c-0.3-0.1-0.6-0.3-0.8-0.5l0.4-1.8
	c0.2,0.1,0.4,0.2,0.7,0.3s0.6,0.2,0.9,0.3c0.3,0.1,0.6,0.2,1,0.2c0.3,0.1,0.6,0.1,0.9,0.1c0.9,0,1.5-0.2,2-0.6
	c0.5-0.4,0.7-1,0.7-1.8c0-0.5-0.2-0.9-0.5-1.2s-0.7-0.6-1.2-0.9c-0.5-0.3-1-0.6-1.6-0.8c-0.6-0.3-1.1-0.6-1.6-1s-0.9-0.8-1.2-1.3
	s-0.5-1.1-0.5-1.9c0-0.7,0.1-1.3,0.4-1.8c0.3-0.5,0.6-1,1-1.4s0.9-0.7,1.5-0.9s1.2-0.3,1.8-0.3s1.3,0.1,2,0.2
	c0.7,0.1,1.2,0.3,1.6,0.6c-0.1,0.2-0.2,0.4-0.3,0.6c-0.1,0.2-0.2,0.4-0.3,0.6c-0.1,0.2-0.2,0.3-0.2,0.5c-0.1,0.1-0.1,0.2-0.1,0.2
	c-0.1,0-0.2-0.1-0.3-0.2c-0.1-0.1-0.3-0.1-0.5-0.2c-0.2-0.1-0.5-0.1-0.8-0.2c-0.3,0-0.7,0-1.2,0c-0.3,0-0.5,0.1-0.8,0.2
	c-0.2,0.1-0.5,0.3-0.7,0.5s-0.4,0.4-0.5,0.7c-0.1,0.2-0.2,0.5-0.2,0.7c0,0.6,0.2,1,0.5,1.4c0.3,0.3,0.7,0.6,1.2,0.9
	c0.5,0.3,1,0.5,1.6,0.8c0.6,0.2,1.1,0.5,1.6,0.9c0.5,0.3,0.9,0.8,1.2,1.3C549.3,900.5,549.5,901.2,549.5,902L549.5,902z"/>
<path id="XMLID_209_" class="st3" d="M518.9,857v-6.2c0-0.8,0.7-1.5,1.5-1.5c0.9,0,1.5-0.7,1.5-1.5s-0.7-1.5-1.5-1.5
	c-2.5,0-4.6,2.1-4.6,4.6v6.2c0,1.7-1.4,3.1-3.1,3.1c-0.8,0-1.5,0.7-1.5,1.5s0.7,1.5,1.5,1.5c1.7,0,3.1,1.4,3.1,3.1v6.2
	c0,2.5,2.1,4.6,4.6,4.6c0.9,0,1.5-0.7,1.5-1.5c0-0.9-0.7-1.5-1.5-1.5s-1.5-0.7-1.5-1.5v-6.2c0-1.8-0.8-3.5-2.1-4.6
	C518,860.4,518.9,858.8,518.9,857L518.9,857z"/>
<path id="XMLID_206_" class="st3" d="M533.5,856.2c0,1.3-1,2.3-2.3,2.3s-2.3-1-2.3-2.3s1-2.3,2.3-2.3S533.5,854.9,533.5,856.2
	L533.5,856.2z"/>
<path id="XMLID_203_" class="st3" d="M549.7,860c-1.7,0-3.1-1.4-3.1-3.1v-6.2c0-2.5-2.1-4.6-4.6-4.6c-0.8,0-1.5,0.7-1.5,1.5
	c0,0.9,0.7,1.5,1.5,1.5c0.9,0,1.5,0.7,1.5,1.5v6.2c0,1.8,0.8,3.5,2.1,4.6c-1.3,1.1-2.1,2.8-2.1,4.6v6.2c0,0.9-0.7,1.5-1.5,1.5
	s-1.5,0.7-1.5,1.5s0.7,1.5,1.5,1.5c2.5,0,4.6-2.1,4.6-4.6v-6.2c0-1.7,1.4-3.1,3.1-3.1c0.9,0,1.5-0.7,1.5-1.5
	C551.2,860.7,550.5,860,549.7,860L549.7,860z"/>
<path id="XMLID_200_" class="st3" d="M531.2,864.7c-0.9,0-1.5,0.7-1.5,1.5v4.6c0,0.9,0.7,1.5,1.5,1.5s1.5-0.7,1.5-1.5v-4.6
	C532.7,865.3,532.1,864.7,531.2,864.7L531.2,864.7z"/>
<g id="XMLID_207_">
	<g id="XMLID_208_">
		<path id="XMLID_211_" class="st1" d="M111,842.9H46.4c-1.5,0-2.7,1.3-2.6,2.9l5.9,66.1c0.1,1.5,1.5,3.2,3,3.6L76,922
			c1.5,0.4,3.9,0.4,5.4,0l23.3-6.4c1.5-0.4,2.8-2,3-3.6l5.9-66.1C113.7,844.2,112.6,842.9,111,842.9L111,842.9z M99.8,866.8
			L99.8,866.8L99.8,866.8l-18.3,7.5c-0.3,0.1-0.4,0.4-0.4,0.7c0.1,0.3,0.3,0.5,0.6,0.5h14.2c0.8,0,1.5,0.3,2,0.9
			c0.5,0.6,0.7,1.3,0.7,2.1l-2.2,20.8c-0.1,1-0.8,1.9-1.8,2.2l-15,5.3c-0.6,0.2-1.2,0.2-1.8,0l-15-5.2c-1-0.3-1.7-1.2-1.8-2.2
			l-1-9.4c-0.1-0.5,0.1-1,0.4-1.4s0.8-0.6,1.3-0.6H66c0.9,0,1.6,0.7,1.7,1.6l0.6,5.8l10.4,3.6l10.4-3.6l1.3-12H60.9
			c-0.9,0-1.6-0.7-1.7-1.6l-0.6-5.1c-0.1-0.8,0.4-1.5,1.1-1.8l18.8-7.8c0.2-0.1,0.3-0.3,0.3-0.5s-0.2-0.4-0.5-0.4H58.5
			c-0.6,0-1.1-0.5-1.2-1l-0.6-5.5c0-0.3,0.1-0.7,0.3-0.9c0.2-0.2,0.5-0.4,0.9-0.4h41.5c0.3,0,0.6,0.1,0.9,0.4
			c0.2,0.2,0.3,0.6,0.3,0.9L99.8,866.8z"/>
	</g>
</g>
<g id="XMLID_205_">
	<path class="st1" d="M71,831.5c-1.3,0.6-3,0.9-5.1,0.9c-2.7,0-4.9-0.8-6.5-2.4c-1.6-1.6-2.4-3.8-2.4-6.4c0-2.9,0.9-5.2,2.6-6.9
		c1.8-1.8,4.1-2.7,6.9-2.7c1.7,0,3.2,0.2,4.4,0.7v3.9c-1.2-0.7-2.6-1.1-4.1-1.1c-1.7,0-3,0.5-4.1,1.6c-1,1.1-1.5,2.5-1.5,4.3
		c0,1.7,0.5,3.1,1.5,4.1c1,1,2.3,1.5,3.9,1.5c1.6,0,3-0.4,4.3-1.1V831.5z"/>
	<path class="st1" d="M73.3,831.4v-4c0.7,0.6,1.5,1.1,2.4,1.4c0.8,0.3,1.7,0.5,2.6,0.5c0.5,0,0.9,0,1.3-0.1c0.4-0.1,0.7-0.2,0.9-0.4
		c0.3-0.2,0.4-0.4,0.6-0.6c0.1-0.2,0.2-0.5,0.2-0.7c0-0.3-0.1-0.7-0.3-0.9c-0.2-0.3-0.5-0.5-0.8-0.8s-0.8-0.5-1.2-0.7
		c-0.5-0.2-1-0.4-1.5-0.7c-1.4-0.6-2.4-1.3-3.1-2.1c-0.7-0.8-1-1.9-1-3c0-0.9,0.2-1.7,0.6-2.4s0.9-1.2,1.5-1.6s1.4-0.7,2.2-1
		c0.8-0.2,1.7-0.3,2.7-0.3c0.9,0,1.8,0.1,2.5,0.2c0.7,0.1,1.4,0.3,2,0.5v3.7c-0.3-0.2-0.6-0.4-1-0.5c-0.4-0.2-0.7-0.3-1.1-0.4
		c-0.4-0.1-0.7-0.2-1.1-0.2s-0.7-0.1-1.1-0.1c-0.5,0-0.9,0-1.2,0.1c-0.4,0.1-0.7,0.2-0.9,0.4c-0.3,0.2-0.5,0.3-0.6,0.6
		s-0.2,0.5-0.2,0.7c0,0.3,0.1,0.6,0.2,0.8s0.4,0.5,0.7,0.7s0.6,0.4,1.1,0.6c0.4,0.2,0.9,0.4,1.4,0.6c0.7,0.3,1.4,0.6,1.9,1
		c0.6,0.3,1.1,0.7,1.5,1.1c0.4,0.4,0.7,0.9,0.9,1.5s0.3,1.2,0.3,1.9c0,1-0.2,1.8-0.6,2.5c-0.4,0.7-0.9,1.2-1.5,1.6
		c-0.6,0.4-1.4,0.7-2.3,0.9c-0.9,0.2-1.8,0.3-2.7,0.3c-1,0-1.9-0.1-2.8-0.2S73.9,831.8,73.3,831.4z"/>
	<path class="st1" d="M87.6,831.4v-4c0.7,0.6,1.5,1.1,2.4,1.4c0.8,0.3,1.7,0.5,2.6,0.5c0.5,0,0.9,0,1.3-0.1c0.4-0.1,0.7-0.2,0.9-0.4
		c0.3-0.2,0.4-0.4,0.6-0.6c0.1-0.2,0.2-0.5,0.2-0.7c0-0.3-0.1-0.7-0.3-0.9c-0.2-0.3-0.5-0.5-0.8-0.8s-0.8-0.5-1.2-0.7
		c-0.5-0.2-1-0.4-1.5-0.7c-1.4-0.6-2.4-1.3-3.1-2.1c-0.7-0.8-1-1.9-1-3c0-0.9,0.2-1.7,0.6-2.4s0.9-1.2,1.5-1.6s1.4-0.7,2.2-1
		c0.8-0.2,1.7-0.3,2.7-0.3c0.9,0,1.8,0.1,2.5,0.2c0.7,0.1,1.4,0.3,2,0.5v3.7c-0.3-0.2-0.6-0.4-1-0.5c-0.4-0.2-0.7-0.3-1.1-0.4
		c-0.4-0.1-0.7-0.2-1.1-0.2s-0.7-0.1-1.1-0.1c-0.5,0-0.9,0-1.2,0.1c-0.4,0.1-0.7,0.2-0.9,0.4c-0.3,0.2-0.5,0.3-0.6,0.6
		s-0.2,0.5-0.2,0.7c0,0.3,0.1,0.6,0.2,0.8s0.4,0.5,0.7,0.7s0.6,0.4,1.1,0.6c0.4,0.2,0.9,0.4,1.4,0.6c0.7,0.3,1.4,0.6,1.9,1
		c0.6,0.3,1.1,0.7,1.5,1.1c0.4,0.4,0.7,0.9,0.9,1.5s0.3,1.2,0.3,1.9c0,1-0.2,1.8-0.6,2.5c-0.4,0.7-0.9,1.2-1.5,1.6
		c-0.6,0.4-1.4,0.7-2.3,0.9c-0.9,0.2-1.8,0.3-2.7,0.3c-1,0-1.9-0.1-2.8-0.2S88.2,831.8,87.6,831.4z"/>
</g>
<g id="XMLID_225_">
	<g id="XMLID_226_">
		<path id="XMLID_228_" class="st1" d="M627.3,468.1c-3.3,0-5.9,2.3-5.9,5.2v22.1c0,2.9,2.6,5.2,5.9,5.2c3.3,0,5.9-2.3,5.9-5.2
			v-22.1C633.2,470.5,630.6,468.1,627.3,468.1L627.3,468.1z M672.1,446.5l5.2-5.2c0.6-0.6,0.6-1.7,0-2.3c-0.6-0.6-1.7-0.6-2.3,0
			l-6.4,6.4c-2.3-0.6-4.7-0.9-7.2-0.9s-4.8,0.3-7.1,0.8L648,439c-0.6-0.6-1.7-0.6-2.3,0s-0.6,1.7,0,2.3l5.1,5.1
			c-8.6,3.3-14.5,10.4-14.5,18.7c0,0.1,50.3,0,50.3,0C686.6,456.9,680.6,449.8,672.1,446.5L672.1,446.5z M654,459.3
			c-1.6,0-3-1.3-3-3c0-1.6,1.3-3,3-3c1.6,0,3,1.3,3,3S655.6,459.3,654,459.3L654,459.3z M668.8,459.3c-1.6,0-3-1.3-3-3
			c0-1.6,1.3-3,3-3c1.6,0,3,1.3,3,3S670.4,459.3,668.8,459.3L668.8,459.3z M695.4,468.1c-3.3,0-5.9,2.3-5.9,5.2v22.1
			c0,2.9,2.7,5.2,5.9,5.2c3.3,0,5.9-2.3,5.9-5.2v-22.1C701.3,470.5,698.7,468.1,695.4,468.1L695.4,468.1z M636.2,503.6
			c0,4.9,4,8.8,8.8,8.9V528c0,2.9,2.6,5.2,5.9,5.2c3.3,0,5.9-2.3,5.9-5.2v-15.5h8.9V528c0,2.9,2.6,5.2,5.9,5.2
			c3.3,0,5.9-2.3,5.9-5.2v-15.5l0,0c4.9,0,8.9-4,8.9-8.9v-35.4h-50.3L636.2,503.6L636.2,503.6z"/>
	</g>
</g>
<path id="XMLID_55_" class="st1" d="M829.1,832.6H696.2v-64c0-5.5,4.5-10,10-10H819c5.5,0,10,4.5,10,10L829.1,832.6L829.1,832.6z"/>
<g id="XMLID_68_">
	<path id="XMLID_160_" class="st13" d="M181.8,353.7c-37.7,0-67.2,14.9-67.2,34c0,19.1,29.5,34,67.2,34s67.2-14.9,67.2-34
		C249,368.6,219.5,353.7,181.8,353.7z"/>
	<path id="XMLID_170_" class="st1" d="M221.5,370.7h-11.7c-1.3,0-2.4,0.9-2.7,2.1l-5.6,22.6v0.1l-2.8,11.3c-0.4,1.5,0.5,3.1,2,3.4
		c0.2,0.1,0.5,0.1,0.7,0.1c1.3,0,2.4-0.9,2.7-2.1l2.3-9.2h9.8c7.4,0,13.8-5.1,15.6-12.4l0.5-2c0.8-3.4,0.1-6.9-2-9.7
		C228.2,372.2,225,370.7,221.5,370.7z M226.9,383.3l-0.5,2c-1.2,4.7-5.4,8.1-10.2,8.1h-8.4l4.2-17h9.5c1.7,0,3.3,0.8,4.4,2.2
		C226.9,379.8,227.3,381.6,226.9,383.3z"/>
	<path id="XMLID_70_" class="st1" d="M196.9,374.1c-1.8-2.2-4.4-3.5-7.2-3.5h-8.9l0.9-5.2c0.3-1.5-0.7-3-2.3-3.3
		c-1.5-0.3-3,0.7-3.3,2.3l-5.6,31.2c-0.3,1.5,0.7,3,2.3,3.3c0.2,0,0.3,0,0.5,0c1.3,0,2.5-1,2.7-2.3l3.7-20.3h9.9
		c1.1,0,2.1,0.5,2.8,1.4c0.7,0.9,1,2,0.7,3.1l-3,14.8c-0.3,1.5,0.7,3,2.2,3.4c0.2,0,0.4,0.1,0.6,0.1c1.3,0,2.5-0.9,2.7-2.3l3-14.8
		C199.3,379.2,198.6,376.3,196.9,374.1z"/>
	<path id="XMLID_157_" class="st1" d="M155.5,370.7h-11.7c-1.3,0-2.4,0.9-2.7,2.1l-5.6,22.6v0.1l-3.3,13.2c-0.4,1.5,4.9,3.3,5.3,2
		l2.9-11.8h9.8c7.4,0,13.8-5.1,15.6-12.4l0.5-2c0.8-3.4,0.1-6.9-2-9.7C162.2,372.2,159,370.7,155.5,370.7z M160.9,383.3l-0.5,2
		c-1.2,4.7-5.4,8.1-10.2,8.1h-8.4l4.2-17h9.5c1.7,0,3.3,0.8,4.4,2.2C160.9,379.8,161.3,381.6,160.9,383.3z"/>
</g>
<rect id="XMLID_158_" x="289.2" y="772.5" class="st4" width="95.3" height="42.5"/>
</svg>
